<svg width="223" height="85" viewBox="0 0 223 85" fill="none" xmlns="http://www.w3.org/2000/svg">
<g clip-path="url(#clip0_1741_2228)">
<path d="M122.909 38.1614C123.421 38.1614 123.676 38.4171 123.676 38.9286V40.4632C123.676 40.9747 123.421 41.2304 122.909 41.2304H108.996C108.484 41.2304 108.229 40.9747 108.229 40.4632V38.9286C108.229 38.4171 108.484 38.1614 108.996 38.1614H109.149C110.104 38.1614 110.786 37.701 111.195 36.7803C111.605 35.8255 111.809 34.6661 111.809 33.302V24.5552C111.809 22.8502 111.588 21.5885 111.144 20.7701C110.701 19.9176 109.695 19.4913 108.126 19.4913C106.865 19.4913 105.62 19.8664 104.392 20.6166C103.199 21.3668 102.363 22.2875 101.886 23.3788V33.302C101.886 34.6661 102.193 35.8255 102.807 36.7803C103.455 37.701 104.409 38.1614 105.671 38.1614H105.773C106.285 38.1614 106.541 38.4171 106.541 38.9286V40.4632C106.541 40.9747 106.285 41.2304 105.773 41.2304H90.8885C90.377 41.2304 90.1213 40.9747 90.1213 40.4632V38.9286C90.1213 38.4171 90.377 38.1614 90.8885 38.1614H90.9908C92.2526 38.1614 93.1903 37.701 93.8041 36.7803C94.418 35.8255 94.7249 34.6661 94.7249 33.302V14.1204C94.7249 13.1997 94.6567 12.3131 94.5203 11.4606C94.418 10.6081 94.1622 9.89197 93.753 9.31226C93.3438 8.69845 92.6618 8.3404 91.707 8.23809C91.2977 8.20399 91.0931 7.98234 91.0931 7.57313V5.834C91.0931 5.6294 91.1443 5.493 91.2466 5.4248C91.383 5.32249 91.5706 5.23724 91.8093 5.16904C93.412 4.62343 95.0318 3.97552 96.6686 3.22531C98.3395 2.47509 99.9252 1.53733 101.426 0.412008C101.528 0.343808 101.613 0.309708 101.681 0.309708H101.733C101.801 0.309708 101.835 0.343808 101.835 0.412008V20.054C102.142 19.4401 102.653 18.7411 103.369 17.9568C104.12 17.1725 105.074 16.4904 106.234 15.9107C107.393 15.2969 108.757 14.99 110.326 14.99C111.929 14.99 113.378 15.2458 114.674 15.7573C116.004 16.2688 117.061 17.1725 117.845 18.4683C118.629 19.73 119.022 21.5203 119.022 23.8391V33.302C119.022 34.6661 119.328 35.8255 119.942 36.7803C120.556 37.701 121.494 38.1614 122.756 38.1614H122.909Z" fill="white"/>
<path d="M140.885 38.1614C141.396 38.1614 141.652 38.4171 141.652 38.9286V40.4632C141.652 40.9747 141.362 41.2304 140.783 41.2304H126.307C125.727 41.2304 125.437 40.9747 125.437 40.4632V38.9286C125.437 38.4171 125.693 38.1614 126.205 38.1614H126.307C127.569 38.1614 128.489 37.701 129.069 36.7803C129.683 35.8255 129.99 34.6661 129.99 33.302V27.88C129.99 27.0957 129.922 26.3114 129.785 25.5271C129.683 24.7428 129.427 24.0608 129.018 23.4811C128.609 22.9014 127.927 22.5603 126.972 22.458C126.563 22.4239 126.358 22.2023 126.358 21.7931V20.054C126.358 19.8493 126.426 19.7129 126.563 19.6447C126.699 19.5424 126.887 19.4572 127.125 19.389C129.819 18.5024 131.882 17.5987 133.315 16.678C134.781 15.7232 135.855 14.8877 136.537 14.1716C136.605 14.1034 136.674 14.0693 136.742 14.0693H136.895C136.963 14.0693 136.997 14.1034 136.997 14.1716V33.2509C136.997 34.6149 137.304 35.7743 137.918 36.7291C138.532 37.684 139.47 38.1614 140.731 38.1614H140.885ZM133.57 3.37876C134.457 3.37876 135.327 3.80502 136.179 4.65753C137.032 5.51005 137.458 6.36256 137.458 7.21508C137.458 8.06759 137.032 8.92011 136.179 9.77262C135.327 10.6251 134.457 11.0514 133.57 11.0514C132.752 11.0514 131.899 10.6251 131.013 9.77262C130.16 8.95421 129.734 8.10169 129.734 7.21508C129.734 6.36256 130.16 5.51005 131.013 4.65753C131.865 3.80502 132.718 3.37876 133.57 3.37876Z" fill="white"/>
<path d="M170.471 15.655C170.982 15.655 171.238 15.9107 171.238 16.4222V17.9568C171.238 18.4683 170.982 18.724 170.471 18.724H169.704C169.158 18.724 168.664 18.9286 168.22 19.3378C167.811 19.747 167.317 20.5996 166.737 21.8954L158.092 40.6678C157.922 41.0429 157.666 41.2304 157.325 41.2304H154.41C154.034 41.2304 153.762 41.0429 153.591 40.6678L144.998 21.9465C144.418 20.6507 143.941 19.7982 143.566 19.389C143.225 18.9457 142.713 18.724 142.031 18.724H141.929C141.417 18.724 141.161 18.4683 141.161 17.9568V16.4222C141.161 15.9107 141.417 15.655 141.929 15.655H153.745C154.256 15.655 154.512 15.9107 154.512 16.4222V17.9568C154.512 18.4683 154.256 18.724 153.745 18.724H153.642C152.994 18.724 152.534 18.8604 152.261 19.1332C152.023 19.3719 151.903 19.73 151.903 20.2074C151.903 20.6507 151.988 21.1452 152.159 21.6908C152.364 22.2364 152.636 22.8673 152.977 23.5834L157.683 33.5578L161.98 23.5834C162.321 22.799 162.611 22.0829 162.849 21.435C163.088 20.7871 163.208 20.2415 163.208 19.7982C163.208 19.0821 162.832 18.724 162.082 18.724H161.059C160.548 18.724 160.292 18.4683 160.292 17.9568V16.4222C160.292 15.9107 160.548 15.655 161.059 15.655H170.471Z" fill="white"/>
<path d="M178.978 32.0744C179.558 33.5066 180.478 34.7854 181.74 35.9107C183.036 37.036 184.673 37.5987 186.651 37.5987C187.742 37.5987 188.884 37.2918 190.078 36.678C191.271 36.0642 192.311 35.1094 193.198 33.8135C193.3 33.643 193.437 33.5578 193.607 33.5578C193.778 33.5578 193.948 33.6089 194.119 33.7112C194.323 33.8135 194.835 34.1034 195.653 34.5808C195.79 34.6831 195.858 34.8195 195.858 34.99C195.858 35.2287 195.755 35.5186 195.551 35.8596C194.596 37.6328 193.3 39.0821 191.663 40.2074C190.027 41.3327 187.895 41.8954 185.27 41.8954C182.439 41.8954 180.001 41.2645 177.955 40.0028C175.909 38.7411 174.323 37.0702 173.198 34.99C172.107 32.9099 171.561 30.6422 171.561 28.1869C171.561 25.834 171.902 23.8221 172.584 22.1511C173.3 20.4461 174.238 19.0821 175.397 18.0591C176.557 17.0019 177.853 16.2347 179.285 15.7573C180.751 15.2458 182.235 14.99 183.735 14.99C185.44 14.99 186.94 15.331 188.236 16.013C189.532 16.6609 190.623 17.4964 191.51 18.5194C192.431 19.5424 193.113 20.6337 193.556 21.7931C194.033 22.9184 194.272 23.9755 194.272 24.9644C194.272 25.2372 194.119 25.4418 193.812 25.5782L178.978 32.0744ZM186.599 24.7598C186.599 23.123 186.207 21.776 185.423 20.7189C184.639 19.6618 183.65 19.1332 182.456 19.1332C181.058 19.1332 179.95 19.6959 179.131 20.8212C178.313 21.9124 177.904 23.2935 177.904 24.9644C177.904 25.4759 177.921 26.1068 177.955 26.857C178.023 27.6072 178.16 28.2892 178.364 28.9031L186.599 24.7598Z" fill="white"/>
<path d="M112.474 61.9465C112.27 62.0488 112.099 62.1 111.963 62.1C111.724 62.1 111.502 61.9806 111.298 61.7419C109.763 59.7982 108.16 58.4342 106.49 57.6499C104.819 56.8655 103.369 56.4734 102.142 56.4734C101.255 56.4734 100.437 56.6609 99.6865 57.0361C98.9363 57.4112 98.5612 58.0932 98.5612 59.0821C98.5612 59.8323 98.834 60.4632 99.3796 60.9747C99.9593 61.4521 100.692 61.8442 101.579 62.1511C102.466 62.458 103.369 62.7308 104.29 62.9696C105.62 63.2765 106.95 63.6345 108.28 64.0437C109.644 64.4529 110.889 64.9985 112.014 65.6805C113.139 66.3285 114.043 67.1469 114.725 68.1358C115.441 69.1247 115.799 70.3694 115.799 71.8698C115.799 73.4725 115.356 74.9048 114.469 76.1665C113.617 77.4282 112.389 78.4342 110.786 79.1844C109.184 79.9005 107.274 80.2586 105.057 80.2586C104 80.2586 102.96 80.1222 101.937 79.8493C100.948 79.6106 100.01 79.2867 99.1238 78.8775C98.9192 78.7752 98.7658 78.724 98.6635 78.724C98.4248 78.724 98.3054 78.8434 98.3054 79.0821C98.3054 79.1503 98.3395 79.2867 98.4077 79.4913C98.4759 79.6959 98.51 79.8323 98.51 79.9005C98.51 80.1733 98.3054 80.3097 97.8962 80.3097H96.0548C95.6797 80.3097 95.3898 80.1392 95.1852 79.7982L90.7862 71.5629C90.6839 71.3583 90.6328 71.2048 90.6328 71.1025C90.6328 70.8638 90.7692 70.6592 91.042 70.4887L92.6277 69.568C92.8323 69.4657 92.9857 69.4146 93.088 69.4146C93.2926 69.4146 93.4802 69.568 93.6507 69.8749C95.3216 72.3643 97.146 74.1375 99.1238 75.1946C101.136 76.2517 103.182 76.7803 105.262 76.7803C108.536 76.7803 110.172 75.8084 110.172 73.8647C110.172 72.9781 109.763 72.2449 108.945 71.6652C108.16 71.0855 107.172 70.6081 105.978 70.233C104.819 69.8579 103.642 69.5339 102.449 69.2611C100.266 68.7155 98.5271 68.1017 97.2313 67.4197C95.9354 66.7036 94.9636 65.9534 94.3157 65.169C93.6677 64.3506 93.2244 63.5493 92.9857 62.7649C92.7811 61.9465 92.6788 61.1622 92.6788 60.412C92.6788 58.366 93.4631 56.678 95.0318 55.3481C96.6004 54.0181 98.7317 53.3532 101.426 53.3532C103.028 53.3532 104.444 53.5748 105.671 54.0181C106.899 54.4274 107.751 54.7684 108.229 55.0412C108.365 55.1094 108.467 55.1435 108.536 55.1435C108.638 55.1435 108.689 55.0753 108.689 54.9389C108.689 54.8366 108.638 54.632 108.536 54.325C108.501 54.1545 108.467 54.0352 108.433 53.967C108.433 53.8647 108.433 53.7794 108.433 53.7112C108.433 53.3702 108.655 53.1997 109.098 53.1997H110.428C110.871 53.1997 111.161 53.3873 111.298 53.7624L113.855 60.2586C113.958 60.4632 114.009 60.6337 114.009 60.7701C114.009 61.0088 113.872 61.1963 113.6 61.3327L112.474 61.9465Z" fill="white"/>
<path d="M140.521 72.6882C140.794 72.8928 140.931 73.1145 140.931 73.3532C140.931 73.4214 140.896 73.5578 140.828 73.7624C139.839 75.9448 138.373 77.5817 136.429 78.6729C134.52 79.73 132.422 80.2586 130.138 80.2586C128.228 80.2586 126.489 79.8493 124.92 79.0309C123.352 78.1784 122.022 77.0531 120.93 75.655C119.839 74.2569 119.038 72.6882 118.526 70.9491C118.015 69.21 117.827 67.4197 117.964 65.5782C118.202 62.7479 118.987 60.4291 120.317 58.6217C121.647 56.8144 123.249 55.4845 125.125 54.632C127.035 53.7794 128.944 53.3532 130.854 53.3532C133.104 53.3532 134.929 53.6942 136.327 54.3762C137.725 55.0582 138.799 55.9448 139.549 57.0361C140.3 58.1273 140.811 59.2696 141.084 60.4632C141.118 60.5996 141.135 60.7189 141.135 60.8212C141.135 61.094 140.931 61.2816 140.521 61.3839L134.639 62.9184C134.434 62.9866 134.281 63.0207 134.179 63.0207C133.94 63.0207 133.821 62.9014 133.821 62.6626C133.821 62.5262 133.821 62.3898 133.821 62.2534C133.855 62.117 133.872 61.9295 133.872 61.6908C133.872 60.5996 133.531 59.6277 132.849 58.7752C132.167 57.9227 131.11 57.4964 129.677 57.4964C128.381 57.4964 127.358 57.9056 126.608 58.724C125.858 59.5424 125.312 60.5996 124.971 61.8954C124.665 63.1571 124.511 64.487 124.511 65.8852C124.511 67.5561 124.733 69.1418 125.176 70.6422C125.619 72.1426 126.335 73.3702 127.324 74.3251C128.347 75.2458 129.728 75.7061 131.468 75.7061C132.832 75.7061 134.093 75.3822 135.253 74.7343C136.412 74.0522 137.367 73.1315 138.117 71.9721C138.254 71.7334 138.458 71.6141 138.731 71.6141C138.902 71.6141 139.055 71.6652 139.191 71.7675L140.521 72.6882Z" fill="white"/>
<path d="M156.177 53.3532C158.121 53.3532 159.911 53.7453 161.548 54.5297C163.219 55.2799 164.651 56.3199 165.845 57.6499C167.038 58.9457 167.959 60.412 168.607 62.0488C169.289 63.6516 169.63 65.3225 169.63 67.0616C169.63 69.5851 169.033 71.8528 167.839 73.8647C166.646 75.8425 165.077 77.4112 163.134 78.5706C161.19 79.6959 159.076 80.2586 156.791 80.2586C154.847 80.2586 153.057 79.8834 151.42 79.1332C149.783 78.383 148.351 77.3771 147.123 76.1153C145.93 74.8195 144.992 73.3532 144.31 71.7164C143.662 70.0454 143.338 68.3063 143.338 66.499C143.338 64.0096 143.918 61.776 145.077 59.7982C146.237 57.8204 147.788 56.2517 149.732 55.0923C151.676 53.9329 153.824 53.3532 156.177 53.3532ZM158.377 76.1153C159.024 76.1153 159.741 75.9448 160.525 75.6038C161.309 75.2628 161.991 74.6661 162.571 73.8135C163.185 72.961 163.492 71.7846 163.492 70.2841C163.492 69.0906 163.253 67.7777 162.776 66.3455C162.332 64.8792 161.701 63.4811 160.883 62.1511C160.099 60.7871 159.161 59.6788 158.07 58.8263C157.013 57.9397 155.853 57.4964 154.591 57.4964C153.193 57.4964 151.983 58.025 150.96 59.0821C149.937 60.1051 149.425 61.5203 149.425 63.3276C149.425 64.487 149.647 65.7999 150.09 67.2662C150.568 68.7326 151.198 70.1477 151.983 71.5118C152.801 72.8417 153.756 73.9499 154.847 74.8366C155.938 75.6891 157.115 76.1153 158.377 76.1153Z" fill="white"/>
<path d="M199.242 69.2611C199.242 70.1477 199.293 71.0343 199.396 71.921C199.532 72.7735 199.805 73.5066 200.214 74.1204C200.657 74.7002 201.339 75.0412 202.26 75.1435C202.533 75.1776 202.686 75.2628 202.72 75.3992C202.789 75.5015 202.823 75.6379 202.823 75.8084V77.4964C202.823 77.9738 202.584 78.2125 202.107 78.2125C200.436 78.2125 199.038 78.3148 197.912 78.5194C196.821 78.6899 195.866 78.9286 195.048 79.2355C194.263 79.5083 193.479 79.8152 192.695 80.1563C192.558 80.2245 192.422 80.2586 192.286 80.2586H192.183C192.115 80.2586 192.081 80.2074 192.081 80.1051C192.081 80.0028 192.132 79.4913 192.234 78.5706C192.371 77.6158 192.592 75.9789 192.899 73.6601C192.422 74.6149 191.757 75.6038 190.905 76.6268C190.052 77.6499 189.012 78.5194 187.784 79.2355C186.591 79.9176 185.21 80.2586 183.641 80.2586C181.8 80.2586 180.299 79.9858 179.14 79.4401C178.015 78.8604 177.145 78.1102 176.531 77.1895C175.917 76.2347 175.491 75.1776 175.252 74.0181C175.048 72.8246 174.945 71.6141 174.945 70.3864V61.9465C174.945 60.5484 174.621 59.389 173.974 58.4683C173.36 57.5476 172.422 57.0872 171.16 57.0872H170.956C170.444 57.0872 170.188 56.8314 170.188 56.3199V54.7854C170.188 54.2739 170.444 54.0181 170.956 54.0181H181.339C181.851 54.0181 182.107 54.2739 182.107 54.7854V70.6933C182.107 71.6141 182.192 72.4666 182.362 73.2509C182.533 74.0011 182.874 74.6149 183.385 75.0923C183.931 75.5356 184.732 75.7573 185.789 75.7573C186.642 75.7573 187.494 75.5527 188.347 75.1435C189.199 74.7002 189.95 74.1546 190.598 73.5066C191.28 72.8246 191.757 72.1256 192.03 71.4094V61.9465C192.03 60.5484 191.706 59.389 191.058 58.4683C190.444 57.5476 189.523 57.0872 188.296 57.0872H188.194C187.682 57.0872 187.426 56.8314 187.426 56.3199V54.7854C187.426 54.2739 187.682 54.0181 188.194 54.0181H198.475C198.986 54.0181 199.242 54.2739 199.242 54.7854V69.2611Z" fill="white"/>
<path d="M222.702 75.9107C222.805 76.0471 222.856 76.2006 222.856 76.3711C222.856 76.5757 222.719 76.7632 222.447 76.9337L220.912 77.9056C219.991 78.4853 218.883 79.0309 217.587 79.5424C216.291 80.0198 214.996 80.2586 213.7 80.2586C212.677 80.2586 211.705 80.0198 210.784 79.5424C209.898 79.065 209.182 78.2637 208.636 77.1384C208.09 75.9789 207.817 74.3933 207.817 72.3813V62.9184C207.817 61.9977 207.766 61.094 207.664 60.2074C207.562 59.2867 207.238 58.5365 206.692 57.9568C206.181 57.3771 205.311 57.0872 204.083 57.0872C203.572 57.0872 203.316 56.8314 203.316 56.3199V54.7854C203.316 54.2739 203.572 54.0181 204.083 54.0181H207.817V50.591C207.817 50.1477 207.971 49.8408 208.278 49.6703C209.028 49.2611 210.017 48.6985 211.245 47.9823C212.472 47.2321 213.563 46.3796 214.518 45.4248C214.586 45.3566 214.672 45.3225 214.774 45.3225H214.876C214.945 45.3225 214.979 45.3736 214.979 45.4759V54.0181H221.833C222.344 54.0181 222.6 54.2739 222.6 54.7854V56.9849C222.6 57.4964 222.344 57.7522 221.833 57.7522H214.979V72.3813C214.979 73.7112 215.183 74.632 215.592 75.1435C216.002 75.6209 216.513 75.8596 217.127 75.8596C217.707 75.8596 218.32 75.7061 218.968 75.3992C219.616 75.0582 220.213 74.7172 220.759 74.3762C220.997 74.2398 221.185 74.1716 221.321 74.1716C221.526 74.1716 221.713 74.308 221.884 74.5808L222.702 75.9107Z" fill="white"/>
<path d="M24.8763 69.8245C24.8703 69.8364 24.8609 69.8461 24.849 69.8519C24.6549 69.946 24.429 69.9245 24.2031 69.9357C19.9622 69.8892 12.2959 69.9241 9.35989 69.8311C9.05697 69.7846 8.97541 69.645 8.789 69.3543C8.63754 69.0984 8.41617 68.7146 8.1249 68.2146C6.84331 66.0166 5.14228 63.1209 3.79079 60.7949C3.2199 59.8181 2.67231 58.8877 2.12472 57.9457C1.9383 57.6317 1.77519 57.3526 1.60043 57.0502C1.29751 56.5153 1.29751 56.4106 1.60043 55.8757C2.34608 54.6313 3.06844 53.4451 3.82574 52.1658C5.46851 49.4445 7.42585 46.165 8.97541 43.6065C9.20843 43.1878 9.48805 43.1646 9.93078 43.1646C12.4474 43.1995 21.2554 43.1879 24.7274 43.2693C24.9918 43.307 25.1754 43.5174 25.3213 43.7412C26.9957 46.3093 30.9727 53.3965 32.4635 55.8175C32.6499 56.1315 32.7664 56.3292 32.8014 56.492C32.8713 56.8177 32.6266 57.0968 32.4752 57.3875C30.8684 59.8745 26.4344 67.7387 24.882 69.8152C24.8797 69.8182 24.878 69.8211 24.8763 69.8245Z" stroke="#F8BE14" stroke-width="2" stroke-miterlimit="10"/>
<path d="M56.2188 69.6164C56.2255 69.6131 56.2338 69.6163 56.2366 69.6233C56.5286 70.3479 56.0655 70.7663 55.6254 71.564C53.6564 74.8202 50.1845 80.5652 48.9844 82.5539C48.8213 82.7981 48.6931 83.0888 48.4485 83.2284C48.3436 83.2865 48.2155 83.2981 48.029 83.3098C44.1843 83.2981 35.6559 83.2749 32.9762 83.2284C32.6616 83.1935 32.5567 83.1004 32.3703 82.8097C32.2189 82.5655 31.9975 82.1933 31.6946 81.6816C30.413 79.4953 28.6653 76.5414 27.3022 74.2155C26.5798 72.9944 25.9041 71.8431 25.205 70.6569C24.7507 69.9242 24.739 69.8195 25.205 69.0752C25.6478 68.3426 26.0672 67.6332 26.5332 66.8773C28.4323 63.7257 30.6693 60.0042 32.5101 56.9805C32.7431 56.5735 33.0461 56.5735 33.4771 56.5735C35.8746 56.6264 43.6908 56.5733 47.401 56.66C48.0447 56.675 48.6602 56.8339 49.0077 57.3759C50.4623 59.8849 54.567 66.791 56.2021 69.6117C56.2055 69.6177 56.2127 69.6195 56.2188 69.6164Z" stroke="#F8BE14" stroke-width="2" stroke-miterlimit="10"/>
<path d="M72.2431 43.595C72.2481 43.595 72.2526 43.5969 72.2556 43.601C73.7975 45.6804 78.1363 53.6104 79.7193 56.1083C79.8824 56.3991 80.1154 56.6782 80.0339 57.0038C79.9873 57.1666 79.8708 57.3643 79.6844 57.6783C78.16 60.0884 74.0958 67.1233 72.3938 69.686C72.2453 69.9095 72.0623 70.1189 71.7967 70.1568C68.3481 70.1917 59.61 70.087 57.0468 70.0987C56.6157 70.0987 56.3244 70.0986 56.0914 69.68C54.635 67.2494 52.8408 64.156 51.3146 61.5626C50.6505 60.4345 50.0213 59.353 49.3805 58.2714C49.0077 57.5504 48.3552 56.9806 48.7281 56.2014C49.3922 54.9454 50.1728 53.7941 50.9068 52.5264C52.3165 50.1889 54.1108 47.2118 55.439 45.0138C55.7419 44.5253 55.9632 44.1416 56.1147 43.8973C56.3011 43.6066 56.3943 43.4903 56.6972 43.4438C59.6566 43.3856 67.3345 43.5019 71.587 43.5019C71.8072 43.5019 72.0389 43.5019 72.2362 43.5935C72.2384 43.5944 72.2407 43.595 72.2431 43.595Z" stroke="#F8BE14" stroke-width="2" stroke-miterlimit="10"/>
<path d="M56.595 16.7798C56.5879 16.7727 56.5897 16.7608 56.5987 16.7565C56.7928 16.6623 57.0188 16.6838 57.2449 16.6725C61.4858 16.7191 69.152 16.6725 72.088 16.7656C72.391 16.8121 72.4725 16.9516 72.6589 17.2424C72.8104 17.4982 73.0318 17.882 73.3347 18.3821C74.6163 20.5801 76.3173 23.4642 77.6804 25.7901C78.263 26.7786 78.8106 27.7206 79.3698 28.6626C79.5562 28.9766 79.7193 29.2557 79.8941 29.558C80.197 30.093 80.197 30.1977 79.8941 30.7326C79.1484 31.977 78.4261 33.1632 77.6688 34.4424C76.026 37.1638 74.0687 40.4433 72.5191 43.0018C72.2861 43.4204 72.0065 43.4437 71.5754 43.4437C69.0588 43.4088 60.2391 43.4204 56.7672 43.3507C56.5027 43.3129 56.3191 43.1025 56.1733 42.8787C54.4989 40.3097 50.5219 33.2118 49.031 30.7908C48.8446 30.4768 48.7281 30.2791 48.6931 30.1163C48.6232 29.7906 48.8679 29.5115 49.0194 29.2208C50.6247 26.7359 55.0409 18.8831 56.5969 16.7984C56.6013 16.7925 56.6002 16.785 56.595 16.7798Z" stroke="#F8BE14" stroke-width="2" stroke-miterlimit="10"/>
<path d="M25.2347 16.997C25.2381 16.9903 25.2384 16.9824 25.2357 16.9754C24.9535 16.2264 25.4401 15.7965 25.8575 15.0328C26.0322 14.742 26.207 14.4629 26.3818 14.1606C28.3857 10.8462 31.4382 5.75242 32.615 3.82192C32.813 3.48466 32.9878 3.29859 33.4189 3.31022C37.0306 3.31022 45.7105 3.38 48.1572 3.38C48.3902 3.38 48.5999 3.38 48.7747 3.47303C48.8795 3.53118 48.9727 3.63585 49.0776 3.81029C49.2291 4.05451 49.4504 4.42666 49.7417 4.93836C51.0233 7.12471 52.7826 10.0902 54.1457 12.4161C54.903 13.707 55.6137 14.9165 56.3477 16.1608C56.6623 16.7074 56.6623 16.8005 56.3477 17.3471C56.0448 17.8471 55.7535 18.3239 55.439 18.8473C53.3535 22.2896 50.9534 26.3134 48.9261 29.6395C48.7281 29.9302 48.6116 30.0116 48.297 30.0465C45.862 30.0814 36.8209 29.9883 33.8732 29.9883C33.2208 29.9883 32.9062 30.0465 32.6033 29.5232C31.0327 26.8406 26.8365 19.7862 25.2352 17.0216C25.2307 17.0139 25.2307 17.005 25.2347 16.997Z" stroke="#F8BE14" stroke-width="2" stroke-miterlimit="10"/>
<path d="M9.23484 43.006C9.22629 43.0103 9.21657 43.0087 9.21089 43.001C7.66489 40.9118 3.3216 32.9954 1.74023 30.5C1.58876 30.2093 1.3441 29.9302 1.42566 29.6045C1.47226 29.4417 1.58877 29.244 1.77518 28.93C3.29957 26.5199 7.36373 19.485 9.06578 16.9224C9.21422 16.6989 9.3972 16.4894 9.6628 16.4515C13.1114 16.405 21.8845 16.5097 24.4244 16.4981C24.8555 16.4981 25.1468 16.5097 25.3798 16.9283C26.8361 19.3589 28.642 22.464 30.1683 25.0458C30.8324 26.1622 31.4615 27.2321 32.0907 28.3137C32.4752 29.0463 33.116 29.6162 32.7431 30.407C32.079 31.6513 31.3101 32.791 30.5761 34.0586C29.1663 36.3962 27.3721 39.3733 26.0439 41.5829C25.741 42.0714 25.5196 42.4551 25.3681 42.6994C25.1817 42.9901 25.0885 43.118 24.7856 43.1529C21.8263 43.2111 14.1484 43.0948 9.89582 43.0948C9.67767 43.0948 9.44821 43.0948 9.25204 43.0057C9.24655 43.0033 9.24023 43.0033 9.23484 43.006Z" stroke="#F8BE14" stroke-width="2" stroke-miterlimit="10"/>
<path d="M40.8288 9.46228C46.9222 9.46228 50.3825 16.44 46.4678 21.1616C44.8251 23.1502 42.0871 24.1155 39.5472 23.6619C34.9102 22.9525 32.1606 17.8007 34.1762 13.6257C35.3413 11.0904 37.9977 9.45065 40.8055 9.46228H40.8288Z" stroke="#F8BE14" stroke-width="2" stroke-miterlimit="10"/>
<path d="M64.2936 22.8362C70.387 22.8362 73.8473 29.8139 69.9326 34.5355C68.2898 36.5241 65.5519 37.4894 63.012 37.0358C58.375 36.3264 55.6254 31.1745 57.641 26.9995C58.806 24.4643 61.4624 22.8245 64.2703 22.8362H64.2936Z" stroke="#F8BE14" stroke-width="2" stroke-miterlimit="10"/>
<path d="M64.2936 49.4097C70.387 49.4097 73.8473 56.3874 69.9326 61.109C68.2898 63.0976 65.5519 64.0629 63.012 63.6093C58.375 62.8999 55.6254 57.748 57.641 53.573C58.806 51.0378 61.4624 49.398 64.2703 49.4097H64.2936Z" stroke="#F8BE14" stroke-width="2" stroke-miterlimit="10"/>
<path d="M17.096 22.8362C23.1894 22.8362 26.6497 29.8139 22.7351 34.5355C21.0923 36.5241 18.3543 37.4894 15.8145 37.0358C11.1774 36.3264 8.42781 31.1745 10.4434 26.9995C11.6085 24.4643 14.2649 22.8245 17.0727 22.8362H17.096Z" stroke="#F8BE14" stroke-width="2" stroke-miterlimit="10"/>
<path d="M17.2009 49.5841C23.2943 49.5841 26.7546 56.5619 22.8399 61.2834C21.1971 63.2721 18.4592 64.2373 15.9193 63.7838C11.2823 63.0744 8.53267 57.9225 10.5483 53.7475C11.7133 51.2123 14.3697 49.5725 17.1776 49.5841H17.2009Z" stroke="#F8BE14" stroke-width="2" stroke-miterlimit="10"/>
<path d="M40.8288 62.958C46.9222 62.958 50.3825 69.9357 46.4678 74.6573C44.8251 76.646 42.0871 77.6112 39.5472 77.1577C34.9102 76.4483 32.1606 71.2964 34.1762 67.1214C35.3413 64.5862 37.9977 62.9464 40.8055 62.958H40.8288Z" stroke="#F8BE14" stroke-width="2" stroke-miterlimit="10"/>
</g>
<defs>
<clipPath id="clip0_1741_2228">
<rect width="223" height="85" fill="white"/>
</clipPath>
</defs>
</svg>
