<svg width="276" height="42" viewBox="0 0 276 42" fill="none" xmlns="http://www.w3.org/2000/svg">
<g clip-path="url(#clip0_1741_2228)">
<path d="M76.532 37.1534C77.0234 37.1534 77.2691 37.3991 77.2691 37.8905V39.3647C77.2691 39.8561 77.0234 40.1018 76.532 40.1018H63.1659C62.6745 40.1018 62.4288 39.8561 62.4288 39.3647V37.8905C62.4288 37.3991 62.6745 37.1534 63.1659 37.1534H63.3134C64.2306 37.1534 64.8858 36.7112 65.279 35.8266C65.6721 34.9094 65.8686 33.7955 65.8686 32.4851V24.0822C65.8686 22.4442 65.6557 21.232 65.2298 20.4458C64.8039 19.6268 63.8375 19.2173 62.3306 19.2173C61.1184 19.2173 59.9227 19.5777 58.7433 20.2984C57.5967 21.0191 56.7941 21.9036 56.3355 22.9519V32.4851C56.3355 33.7955 56.6303 34.9094 57.22 35.8266C57.8424 36.7112 58.7597 37.1534 59.9718 37.1534H60.0701C60.5615 37.1534 60.8072 37.3991 60.8072 37.8905V39.3647C60.8072 39.8561 60.5615 40.1018 60.0701 40.1018H45.7704C45.279 40.1018 45.0333 39.8561 45.0333 39.3647V37.8905C45.0333 37.3991 45.279 37.1534 45.7704 37.1534H45.8686C47.0808 37.1534 47.9817 36.7112 48.5713 35.8266C49.161 34.9094 49.4559 33.7955 49.4559 32.4851V14.0576C49.4559 13.1731 49.3903 12.3213 49.2593 11.5023C49.161 10.6833 48.9153 9.99535 48.5222 9.43843C48.1291 8.84875 47.4739 8.50477 46.5566 8.40649C46.1635 8.37373 45.9669 8.16079 45.9669 7.76766V6.0969C45.9669 5.90034 46.0161 5.7693 46.1143 5.70378C46.2454 5.6055 46.4256 5.5236 46.6549 5.45808C48.1946 4.93392 49.7507 4.31148 51.3232 3.59076C52.9284 2.87004 54.4518 1.96914 55.8932 0.888058C55.9915 0.822539 56.0734 0.78978 56.1389 0.78978H56.1881C56.2536 0.78978 56.2863 0.822539 56.2863 0.888058V19.7578C56.5812 19.1682 57.0726 18.4966 57.7605 17.7431C58.4813 16.9896 59.3985 16.3344 60.5124 15.7775C61.6262 15.1878 62.9366 14.893 64.4436 14.893C65.9833 14.893 67.3756 15.1387 68.6205 15.6301C69.8981 16.1215 70.9137 16.9896 71.6672 18.2345C72.4207 19.4466 72.7974 21.1665 72.7974 23.3942V32.4851C72.7974 33.7955 73.0922 34.9094 73.6819 35.8266C74.2716 36.7112 75.1725 37.1534 76.3846 37.1534H76.532Z" fill="white"/>
<path d="M93.8013 37.1534C94.2927 37.1534 94.5384 37.3991 94.5384 37.8905V39.3647C94.5384 39.8561 94.2599 40.1018 93.703 40.1018H79.7964C79.2395 40.1018 78.961 39.8561 78.961 39.3647V37.8905C78.961 37.3991 79.2067 37.1534 79.6981 37.1534H79.7964C81.0085 37.1534 81.893 36.7112 82.45 35.8266C83.0396 34.9094 83.3345 33.7955 83.3345 32.4851V27.2763C83.3345 26.5228 83.269 25.7693 83.1379 25.0158C83.0396 24.2623 82.7939 23.6071 82.4008 23.0502C82.0077 22.4933 81.3525 22.1657 80.4352 22.0674C80.0421 22.0347 79.8455 21.8217 79.8455 21.4286V19.7578C79.8455 19.5613 79.9111 19.4302 80.0421 19.3647C80.1731 19.2664 80.3533 19.1845 80.5826 19.119C83.1707 18.2673 85.1527 17.3991 86.5286 16.5146C87.9373 15.5973 88.9692 14.7947 89.6244 14.1067C89.6899 14.0412 89.7554 14.0085 89.821 14.0085H89.9684C90.0339 14.0085 90.0667 14.0412 90.0667 14.1067V32.436C90.0667 33.7464 90.3615 34.8602 90.9512 35.7775C91.5409 36.6948 92.4418 37.1534 93.6539 37.1534H93.8013ZM86.7743 3.73818C87.626 3.73818 88.4614 4.14768 89.2804 4.96668C90.0994 5.78568 90.5089 6.60468 90.5089 7.42369C90.5089 8.24269 90.0994 9.06169 89.2804 9.88069C88.4614 10.6997 87.626 11.1092 86.7743 11.1092C85.988 11.1092 85.169 10.6997 84.3173 9.88069C83.4983 9.09445 83.0888 8.27545 83.0888 7.42369C83.0888 6.60468 83.4983 5.78568 84.3173 4.96668C85.1363 4.14768 85.9553 3.73818 86.7743 3.73818Z" fill="white"/>
<path d="M122.224 15.5318C122.716 15.5318 122.961 15.7775 122.961 16.2689V17.7431C122.961 18.2345 122.716 18.4802 122.224 18.4802H121.487C120.963 18.4802 120.488 18.6768 120.062 19.0699C119.669 19.463 119.194 20.282 118.637 21.5269L110.332 39.5613C110.169 39.9216 109.923 40.1018 109.595 40.1018H106.794C106.434 40.1018 106.172 39.9216 106.008 39.5613L97.7525 21.576C97.1956 20.3311 96.7369 19.5121 96.3766 19.119C96.049 18.6931 95.5576 18.4802 94.9024 18.4802H94.8041C94.3127 18.4802 94.067 18.2345 94.067 17.7431V16.2689C94.067 15.7775 94.3127 15.5318 94.8041 15.5318H106.155C106.647 15.5318 106.893 15.7775 106.893 16.2689V17.7431C106.893 18.2345 106.647 18.4802 106.155 18.4802H106.057C105.435 18.4802 104.992 18.6112 104.73 18.8733C104.501 19.1026 104.386 19.4466 104.386 19.9053C104.386 20.3311 104.468 20.8062 104.632 21.3303C104.829 21.8545 105.091 22.4605 105.418 23.1485L109.939 32.7308L114.067 23.1485C114.395 22.395 114.673 21.7071 114.902 21.0846C115.132 20.4622 115.246 19.938 115.246 19.5121C115.246 18.8242 114.886 18.4802 114.165 18.4802H113.182C112.691 18.4802 112.445 18.2345 112.445 17.7431V16.2689C112.445 15.7775 112.691 15.5318 113.182 15.5318H122.224Z" fill="white"/>
<path d="M130.397 31.3057C130.954 32.6817 131.838 33.9102 133.05 34.9913C134.295 36.0723 135.868 36.6129 137.768 36.6129C138.816 36.6129 139.914 36.318 141.06 35.7284C142.207 35.1387 143.206 34.2214 144.058 32.9765C144.156 32.8127 144.287 32.7308 144.451 32.7308C144.615 32.7308 144.778 32.78 144.942 32.8782C145.139 32.9765 145.63 33.255 146.416 33.7136C146.548 33.8119 146.613 33.9429 146.613 34.1067C146.613 34.3361 146.515 34.6145 146.318 34.9421C145.401 36.6456 144.156 38.0379 142.584 39.119C141.011 40.2001 138.964 40.7406 136.441 40.7406C133.722 40.7406 131.38 40.1346 129.414 38.9225C127.448 37.7103 125.925 36.1051 124.844 34.1067C123.796 32.1084 123.272 29.9298 123.272 27.5711C123.272 25.3107 123.599 23.3778 124.254 21.7726C124.942 20.1346 125.843 18.8242 126.957 17.8414C128.071 16.8258 129.316 16.0887 130.692 15.6301C132.1 15.1387 133.525 14.893 134.967 14.893C136.605 14.893 138.046 15.2206 139.291 15.8758C140.536 16.4982 141.584 17.3008 142.436 18.2836C143.321 19.2664 143.976 20.3148 144.402 21.4286C144.86 22.5097 145.09 23.5252 145.09 24.4753C145.09 24.7374 144.942 24.9339 144.647 25.065L130.397 31.3057ZM137.719 24.2787C137.719 22.7062 137.342 21.4122 136.588 20.3967C135.835 19.3811 134.885 18.8733 133.738 18.8733C132.395 18.8733 131.33 19.4139 130.544 20.4949C129.758 21.5433 129.365 22.87 129.365 24.4753C129.365 24.9667 129.381 25.5727 129.414 26.2935C129.48 27.0142 129.611 27.6694 129.807 28.2591L137.719 24.2787Z" fill="white"/>
<path d="M169.298 23.1485C169.102 23.2468 168.938 23.2959 168.807 23.2959C168.578 23.2959 168.365 23.1813 168.168 22.9519C166.694 21.0846 165.154 19.7742 163.549 19.0207C161.944 18.2673 160.552 17.8905 159.372 17.8905C158.52 17.8905 157.734 18.0707 157.013 18.4311C156.293 18.7914 155.932 19.4466 155.932 20.3967C155.932 21.1174 156.194 21.7234 156.719 22.2148C157.276 22.6735 157.98 23.0502 158.832 23.3451C159.683 23.6399 160.552 23.902 161.436 24.1313C162.714 24.4261 163.991 24.7701 165.269 25.1632C166.579 25.5564 167.775 26.0805 168.856 26.7357C169.937 27.3582 170.805 28.1444 171.461 29.0944C172.149 30.0445 172.493 31.2402 172.493 32.6817C172.493 34.2214 172.067 35.5973 171.215 36.8094C170.396 38.0216 169.217 38.988 167.677 39.7087C166.137 40.3967 164.303 40.7406 162.173 40.7406C161.158 40.7406 160.158 40.6096 159.176 40.3475C158.226 40.1182 157.325 39.807 156.473 39.4139C156.276 39.3156 156.129 39.2664 156.031 39.2664C155.801 39.2664 155.687 39.3811 155.687 39.6104C155.687 39.6759 155.719 39.807 155.785 40.0035C155.85 40.2001 155.883 40.3311 155.883 40.3967C155.883 40.6587 155.687 40.7898 155.294 40.7898H153.525C153.164 40.7898 152.886 40.626 152.689 40.2984L148.463 32.3868C148.365 32.1903 148.316 32.0429 148.316 31.9446C148.316 31.7153 148.447 31.5187 148.709 31.3549L150.232 30.4704C150.429 30.3721 150.576 30.3229 150.674 30.3229C150.871 30.3229 151.051 30.4704 151.215 30.7652C152.82 33.1567 154.573 34.8602 156.473 35.8758C158.406 36.8913 160.371 37.3991 162.37 37.3991C165.515 37.3991 167.087 36.4655 167.087 34.5981C167.087 33.7464 166.694 33.042 165.908 32.4851C165.154 31.9282 164.204 31.4696 163.058 31.1092C161.944 30.7488 160.814 30.4376 159.667 30.1755C157.57 29.6514 155.9 29.0617 154.655 28.4065C153.41 27.7185 152.476 26.9978 151.854 26.2443C151.231 25.4581 150.805 24.6882 150.576 23.9347C150.38 23.1485 150.281 22.395 150.281 21.6743C150.281 19.7087 151.035 18.0871 152.542 16.8094C154.049 15.5318 156.096 14.893 158.684 14.893C160.224 14.893 161.583 15.1059 162.763 15.5318C163.942 15.9249 164.761 16.2525 165.22 16.5146C165.351 16.5801 165.449 16.6129 165.515 16.6129C165.613 16.6129 165.662 16.5474 165.662 16.4163C165.662 16.318 165.613 16.1215 165.515 15.8266C165.482 15.6628 165.449 15.5482 165.416 15.4827C165.416 15.3844 165.416 15.3025 165.416 15.237C165.416 14.9094 165.629 14.7456 166.055 14.7456H167.333C167.759 14.7456 168.037 14.9257 168.168 15.2861L170.625 21.5269C170.724 21.7234 170.773 21.8872 170.773 22.0183C170.773 22.2476 170.642 22.4278 170.38 22.5588L169.298 23.1485Z" fill="white"/>
<path d="M196.243 33.4679C196.505 33.6645 196.636 33.8774 196.636 34.1067C196.636 34.1723 196.603 34.3033 196.538 34.4999C195.588 36.5965 194.179 38.169 192.312 39.2173C190.477 40.2329 188.462 40.7406 186.268 40.7406C184.433 40.7406 182.762 40.3475 181.255 39.5613C179.748 38.7423 178.471 37.6612 177.422 36.318C176.374 34.9749 175.604 33.4679 175.113 31.7971C174.621 30.1264 174.441 28.4065 174.572 26.6374C174.802 23.9184 175.555 21.6907 176.833 19.9544C178.11 18.2181 179.65 16.9405 181.452 16.1215C183.286 15.3025 185.121 14.893 186.955 14.893C189.118 14.893 190.87 15.2206 192.213 15.8758C193.557 16.531 194.589 17.3827 195.309 18.4311C196.03 19.4794 196.521 20.5768 196.783 21.7234C196.816 21.8545 196.833 21.9691 196.833 22.0674C196.833 22.3295 196.636 22.5097 196.243 22.608L190.592 24.0822C190.395 24.1477 190.248 24.1804 190.15 24.1804C189.92 24.1804 189.806 24.0658 189.806 23.8365C189.806 23.7054 189.806 23.5744 189.806 23.4433C189.838 23.3123 189.855 23.1321 189.855 22.9028C189.855 21.8545 189.527 20.9208 188.872 20.1018C188.217 19.2828 187.201 18.8733 185.825 18.8733C184.58 18.8733 183.598 19.2664 182.877 20.0527C182.156 20.8389 181.632 21.8545 181.304 23.0994C181.01 24.3115 180.862 25.5891 180.862 26.9323C180.862 28.5375 181.075 30.0609 181.501 31.5023C181.927 32.9438 182.615 34.1231 183.565 35.0404C184.548 35.9249 185.874 36.3672 187.545 36.3672C188.856 36.3672 190.068 36.056 191.182 35.4335C192.295 34.7783 193.213 33.8938 193.933 32.78C194.064 32.5506 194.261 32.436 194.523 32.436C194.687 32.436 194.834 32.4851 194.965 32.5834L196.243 33.4679Z" fill="white"/>
<path d="M211.283 14.893C213.151 14.893 214.87 15.2697 216.443 16.0232C218.048 16.7439 219.424 17.7431 220.571 19.0207C221.717 20.2656 222.602 21.6743 223.224 23.2468C223.879 24.7865 224.207 26.3917 224.207 28.0625C224.207 30.4867 223.634 32.6653 222.487 34.5981C221.341 36.4982 219.834 38.0052 217.966 39.119C216.099 40.2001 214.068 40.7406 211.873 40.7406C210.006 40.7406 208.286 40.3803 206.713 39.6596C205.141 38.9388 203.765 37.9724 202.585 36.7603C201.439 35.5154 200.538 34.1067 199.883 32.5343C199.26 30.929 198.949 29.2582 198.949 27.522C198.949 25.1305 199.506 22.9847 200.62 21.0846C201.734 19.1845 203.224 17.6776 205.092 16.5637C206.959 15.4499 209.023 14.893 211.283 14.893ZM213.396 36.7603C214.019 36.7603 214.707 36.5965 215.46 36.2689C216.214 35.9413 216.869 35.368 217.426 34.549C218.015 33.73 218.31 32.5998 218.31 31.1583C218.31 30.0117 218.081 28.7505 217.622 27.3745C217.196 25.9659 216.59 24.6227 215.804 23.3451C215.051 22.0347 214.15 20.97 213.101 20.151C212.086 19.2992 210.972 18.8733 209.76 18.8733C208.417 18.8733 207.254 19.3811 206.271 20.3967C205.288 21.3795 204.797 22.739 204.797 24.4753C204.797 25.5891 205.01 26.8504 205.436 28.2591C205.894 29.6677 206.5 31.0273 207.254 32.3377C208.04 33.6153 208.957 34.68 210.006 35.5318C211.054 36.3508 212.184 36.7603 213.396 36.7603Z" fill="white"/>
<path d="M252.655 30.1755C252.655 31.0273 252.704 31.879 252.803 32.7308C252.934 33.5498 253.196 34.2542 253.589 34.8438C254.015 35.4008 254.67 35.7284 255.555 35.8266C255.817 35.8594 255.964 35.9413 255.997 36.0723C256.062 36.1706 256.095 36.3017 256.095 36.4655V38.0871C256.095 38.5457 255.866 38.775 255.407 38.775C253.802 38.775 252.459 38.8733 251.378 39.0699C250.329 39.2337 249.412 39.463 248.626 39.7578C247.872 40.0199 247.119 40.3148 246.365 40.6424C246.234 40.7079 246.103 40.7406 245.972 40.7406H245.874C245.808 40.7406 245.776 40.6915 245.776 40.5932C245.776 40.4949 245.825 40.0035 245.923 39.119C246.054 38.2017 246.267 36.6293 246.562 34.4016C246.103 35.3189 245.465 36.2689 244.646 37.2517C243.827 38.2345 242.827 39.0699 241.648 39.7578C240.501 40.413 239.175 40.7406 237.668 40.7406C235.899 40.7406 234.457 40.4786 233.343 39.9544C232.262 39.3975 231.427 38.6768 230.837 37.7922C230.247 36.875 229.838 35.8594 229.609 34.7456C229.412 33.599 229.314 32.436 229.314 31.2566V23.1485C229.314 21.8053 229.003 20.6915 228.38 19.807C227.79 18.9225 226.89 18.4802 225.677 18.4802H225.481C224.989 18.4802 224.744 18.2345 224.744 17.7431V16.2689C224.744 15.7775 224.989 15.5318 225.481 15.5318H235.456C235.948 15.5318 236.193 15.7775 236.193 16.2689V31.5515C236.193 32.436 236.275 33.255 236.439 34.0085C236.603 34.7292 236.931 35.3189 237.422 35.7775C237.946 36.2034 238.716 36.4163 239.732 36.4163C240.551 36.4163 241.37 36.2198 242.189 35.8266C243.008 35.4008 243.728 34.8766 244.351 34.2542C245.006 33.599 245.465 32.9274 245.727 32.2394V23.1485C245.727 21.8053 245.415 20.6915 244.793 19.807C244.203 18.9225 243.319 18.4802 242.139 18.4802H242.041C241.55 18.4802 241.304 18.2345 241.304 17.7431V16.2689C241.304 15.7775 241.55 15.5318 242.041 15.5318H251.918C252.41 15.5318 252.655 15.7775 252.655 16.2689V30.1755Z" fill="white"/>
<path d="M275.193 36.5637C275.292 36.6948 275.341 36.8422 275.341 37.006C275.341 37.2026 275.21 37.3827 274.948 37.5465L273.473 38.4802C272.589 39.0371 271.524 39.5613 270.279 40.0527C269.034 40.5113 267.79 40.7406 266.545 40.7406C265.562 40.7406 264.628 40.5113 263.744 40.0527C262.892 39.594 262.204 38.8242 261.68 37.7431C261.156 36.6293 260.894 35.1059 260.894 33.1731V24.0822C260.894 23.1976 260.844 22.3295 260.746 21.4777C260.648 20.5932 260.337 19.8725 259.813 19.3156C259.321 18.7587 258.486 18.4802 257.306 18.4802C256.815 18.4802 256.569 18.2345 256.569 17.7431V16.2689C256.569 15.7775 256.815 15.5318 257.306 15.5318H260.894V12.2394C260.894 11.8135 261.041 11.5187 261.336 11.3549C262.057 10.9618 263.007 10.4212 264.186 9.73327C265.365 9.01255 266.414 8.19355 267.331 7.27626C267.396 7.21075 267.478 7.17799 267.577 7.17799H267.675C267.74 7.17799 267.773 7.22713 267.773 7.3254V15.5318H274.358C274.849 15.5318 275.095 15.7775 275.095 16.2689V18.3819C275.095 18.8733 274.849 19.119 274.358 19.119H267.773V33.1731C267.773 34.4507 267.97 35.3352 268.363 35.8266C268.756 36.2853 269.247 36.5146 269.837 36.5146C270.394 36.5146 270.984 36.3672 271.606 36.0723C272.229 35.7447 272.802 35.4171 273.326 35.0895C273.555 34.9585 273.736 34.893 273.867 34.893C274.063 34.893 274.243 35.024 274.407 35.2861L275.193 36.5637Z" fill="white"/>
<path d="M12.4108 34.0472C12.4078 34.0531 12.4031 34.058 12.3971 34.0609C12.3001 34.1079 12.1871 34.0972 12.0742 34.1028C9.95371 34.0795 6.12058 34.097 4.65257 34.0505C4.50111 34.0272 4.46033 33.9574 4.36713 33.8121C4.2914 33.6841 4.18072 33.4923 4.03508 33.2422C3.39428 32.1432 2.54377 30.6954 1.86802 29.5324C1.58258 29.044 1.30878 28.5788 1.03499 28.1078C0.941781 27.9508 0.860225 27.8112 0.772844 27.66C0.621383 27.3926 0.621383 27.3402 0.772844 27.0728C1.14567 26.4506 1.50685 25.8575 1.8855 25.2179C2.70688 23.8572 3.68555 22.2174 4.46033 20.9382C4.57684 20.7289 4.71665 20.7172 4.93802 20.7172C6.19631 20.7347 10.6003 20.7289 12.3363 20.7696C12.4686 20.7884 12.5603 20.8936 12.6333 21.0055C13.4705 22.2896 15.459 25.8332 16.2044 27.0437C16.2976 27.2007 16.3558 27.2995 16.3733 27.3809C16.4083 27.5438 16.2859 27.6833 16.2102 27.8287C15.4068 29.0722 13.1898 33.0043 12.4136 34.0425C12.4125 34.0441 12.4116 34.0455 12.4108 34.0472Z" stroke="#F8BE14" stroke-miterlimit="10"/>
<path d="M28.082 33.9431C28.0854 33.9415 28.0895 33.9431 28.0909 33.9466C28.2369 34.3089 28.0054 34.5181 27.7853 34.9169C26.8008 36.545 25.0649 39.4175 24.4648 40.4119C24.3833 40.534 24.3192 40.6793 24.1969 40.7491C24.1444 40.7782 24.0804 40.784 23.9871 40.7898C22.0648 40.784 17.8006 40.7724 16.4607 40.7491C16.3034 40.7317 16.251 40.6852 16.1578 40.5398C16.0821 40.4177 15.9714 40.2316 15.8199 39.9757C15.1791 38.8826 14.3053 37.4056 13.6237 36.2427C13.2625 35.6321 12.9247 35.0565 12.5752 34.4634C12.348 34.097 12.3421 34.0447 12.5752 33.6725C12.7965 33.3062 13.0062 32.9515 13.2392 32.5736C14.1888 30.9978 15.3073 29.137 16.2277 27.6252C16.3442 27.4217 16.4957 27.4217 16.7112 27.4217C17.9099 27.4481 21.818 27.4216 23.6731 27.4649C23.995 27.4724 24.3027 27.5519 24.4765 27.8229C25.2038 29.0774 27.2561 32.5304 28.0737 33.9408C28.0754 33.9438 28.079 33.9447 28.082 33.9431Z" stroke="#F8BE14" stroke-miterlimit="10"/>
<path d="M36.0942 20.9324C36.0967 20.9324 36.0989 20.9334 36.1004 20.9354C36.8714 21.9751 39.0408 25.9401 39.8323 27.1891C39.9138 27.3345 40.0303 27.474 39.9896 27.6368C39.9663 27.7182 39.908 27.8171 39.8148 27.9741C39.0526 29.1791 37.0205 32.6966 36.1695 33.9779C36.0953 34.0896 36.0038 34.1944 35.871 34.2133C34.1467 34.2308 29.7776 34.1784 28.496 34.1843C28.2805 34.1843 28.1348 34.1842 28.0183 33.9749C27.2901 32.7596 26.393 31.2129 25.6299 29.9162C25.2979 29.3522 24.9833 28.8114 24.6629 28.2706C24.4765 27.9101 24.1502 27.6252 24.3367 27.2356C24.6687 26.6076 25.059 26.032 25.426 25.3981C26.1309 24.2294 27.028 22.7408 27.6921 21.6418C27.8436 21.3976 27.9542 21.2057 28.03 21.0836C28.1232 20.9382 28.1698 20.8801 28.3212 20.8568C29.8009 20.8277 33.6399 20.8859 35.7661 20.8859C35.8762 20.8859 35.9921 20.8859 36.0907 20.9317C36.0918 20.9321 36.093 20.9324 36.0942 20.9324Z" stroke="#F8BE14" stroke-miterlimit="10"/>
<path d="M28.2701 7.5248C28.2666 7.52128 28.2675 7.51535 28.272 7.51317C28.369 7.46606 28.482 7.47683 28.5951 7.47119C30.7155 7.49445 34.5486 7.47119 36.0166 7.51771C36.1681 7.54097 36.2089 7.61075 36.3021 7.75611C36.3778 7.88404 36.4885 8.07593 36.64 8.32596C37.2808 9.42495 38.1313 10.867 38.8128 12.03C39.1041 12.5242 39.3779 12.9952 39.6575 13.4662C39.7507 13.6232 39.8323 13.7628 39.9197 13.9139C40.0711 14.1814 40.0711 14.2338 39.9197 14.5012C39.5468 15.1234 39.1857 15.7165 38.807 16.3561C37.9856 17.7168 37.007 19.3566 36.2322 20.6358C36.1157 20.8451 35.9759 20.8568 35.7603 20.8568C34.502 20.8393 30.0922 20.8451 28.3562 20.8103C28.224 20.7914 28.1322 20.6862 28.0593 20.5743C27.2221 19.2898 25.2336 15.7408 24.4881 14.5303C24.3949 14.3733 24.3367 14.2745 24.3192 14.1931C24.2842 14.0302 24.4066 13.8907 24.4823 13.7453C25.285 12.5029 27.4931 8.57648 28.2711 7.53414C28.2733 7.53119 28.2727 7.52741 28.2701 7.5248Z" stroke="#F8BE14" stroke-miterlimit="10"/>
<path d="M12.59 7.63343C12.5917 7.6301 12.5918 7.62611 12.5905 7.62262C12.4494 7.24811 12.6927 7.0332 12.9014 6.65132C12.9887 6.50595 13.0761 6.36639 13.1635 6.21521C14.1655 4.558 15.6917 2.01114 16.2801 1.04589C16.3791 0.877258 16.4665 0.784222 16.6821 0.790037C18.4879 0.790037 22.8279 0.824925 24.0512 0.824925C24.1677 0.824925 24.2726 0.824925 24.36 0.871443C24.4124 0.900517 24.459 0.952849 24.5114 1.04007C24.5872 1.16218 24.6978 1.34825 24.8435 1.6041C25.4843 2.69728 26.3639 4.18004 27.0455 5.34299C27.4241 5.98843 27.7795 6.59317 28.1465 7.21535C28.3038 7.48864 28.3038 7.53516 28.1465 7.80845C27.995 8.05849 27.8494 8.2969 27.6921 8.55856C26.6494 10.2797 25.4493 12.2916 24.4357 13.9547C24.3367 14.1 24.2784 14.1407 24.1211 14.1582C22.9036 14.1756 18.3831 14.1291 16.9092 14.1291C16.583 14.1291 16.4257 14.1582 16.2743 13.8965C15.489 12.5552 13.3909 9.02801 12.5902 7.64574C12.588 7.64188 12.588 7.63742 12.59 7.63343Z" stroke="#F8BE14" stroke-miterlimit="10"/>
<path d="M4.59004 20.6379C4.58577 20.6401 4.58091 20.6393 4.57807 20.6354C3.80507 19.5909 1.63342 15.6326 0.842738 14.3849C0.767007 14.2396 0.644674 14.1 0.685452 13.9372C0.708754 13.8558 0.767008 13.7569 0.860215 13.5999C1.62241 12.3949 3.65449 8.87744 4.50552 7.59612C4.57973 7.48437 4.67122 7.37964 4.80402 7.3607C6.52835 7.33744 10.9149 7.38977 12.1848 7.38396C12.4004 7.38396 12.546 7.38977 12.6625 7.59911C13.3907 8.81439 14.2936 10.3669 15.0568 11.6578C15.3888 12.216 15.7034 12.751 16.018 13.2918C16.2102 13.6581 16.5306 13.943 16.3442 14.3384C16.0121 14.9606 15.6277 15.5304 15.2607 16.1642C14.5558 17.333 13.6587 18.8216 12.9946 19.9264C12.8431 20.1706 12.7324 20.3625 12.6567 20.4846C12.5635 20.63 12.5169 20.6939 12.3654 20.7114C10.8858 20.7405 7.04681 20.6823 4.92053 20.6823C4.81146 20.6823 4.69673 20.6823 4.59864 20.6378C4.5959 20.6366 4.59274 20.6366 4.59004 20.6379Z" stroke="#F8BE14" stroke-miterlimit="10"/>
<path d="M20.387 3.86607C23.4337 3.86607 25.1639 7.35492 23.2065 9.71572C22.3852 10.71 21.0162 11.1927 19.7462 10.9659C17.4277 10.6112 16.0529 8.03525 17.0607 5.94775C17.6433 4.68013 18.9715 3.86025 20.3754 3.86607H20.387Z" stroke="#F8BE14" stroke-miterlimit="10"/>
<path d="M32.1194 10.553C35.1661 10.553 36.8963 14.0419 34.9389 16.4027C34.1175 17.397 32.7486 17.8796 31.4786 17.6528C29.1601 17.2981 27.7853 14.7222 28.7931 12.6347C29.3757 11.3671 30.7039 10.5472 32.1078 10.553H32.1194Z" stroke="#F8BE14" stroke-miterlimit="10"/>
<path d="M32.1194 23.8398C35.1661 23.8398 36.8963 27.3286 34.9389 29.6894C34.1175 30.6837 32.7486 31.1664 31.4786 30.9396C29.1601 30.5849 27.7853 28.0089 28.7931 25.9214C29.3757 24.6538 30.7039 23.8339 32.1078 23.8398H32.1194Z" stroke="#F8BE14" stroke-miterlimit="10"/>
<path d="M8.52065 10.553C11.5673 10.553 13.2975 14.0419 11.3402 16.4027C10.5188 17.397 9.1498 17.8796 7.87985 17.6528C5.56134 17.2981 4.18654 14.7222 5.19433 12.6347C5.77688 11.3671 7.10507 10.5472 8.509 10.553H8.52065Z" stroke="#F8BE14" stroke-miterlimit="10"/>
<path d="M8.57307 23.927C11.6198 23.927 13.3499 27.4158 11.3926 29.7766C10.5712 30.771 9.20222 31.2536 7.93228 31.0268C5.61376 30.6721 4.23896 28.0962 5.24676 26.0087C5.8293 24.7411 7.15749 23.9212 8.56142 23.927H8.57307Z" stroke="#F8BE14" stroke-miterlimit="10"/>
<path d="M20.387 30.6139C23.4337 30.6139 25.1639 34.1028 23.2065 36.4636C22.3852 37.4579 21.0162 37.9405 19.7462 37.7138C17.4277 37.3591 16.0529 34.7831 17.0607 32.6956C17.6433 31.428 18.9715 30.6081 20.3754 30.6139H20.387Z" stroke="#F8BE14" stroke-miterlimit="10"/>
</g>
<defs>
<clipPath id="clip0_1741_2228">
<rect width="276" height="42" fill="white"/>
</clipPath>
</defs>
</svg>
