<svg width="60" height="60" viewBox="0 0 60 60" fill="none" xmlns="http://www.w3.org/2000/svg">
<rect width="60" height="60" rx="10" fill="#2E2E2E"/>
<path d="M31.7467 43.5361C32.1484 43.5361 32.3492 43.7369 32.3492 44.1386V45.3436C32.3492 45.7453 32.1484 45.9461 31.7467 45.9461H20.8214C20.4198 45.9461 20.2189 45.7453 20.2189 45.3436V44.1386C20.2189 43.7369 20.4198 43.5361 20.8214 43.5361H20.9419C21.6917 43.5361 22.2273 43.1746 22.5486 42.4516C22.8699 41.7018 23.0306 40.7914 23.0306 39.7203V32.8518C23.0306 31.5129 22.8565 30.5222 22.5084 29.8795C22.1603 29.2101 21.3704 28.8753 20.1386 28.8753C19.1478 28.8753 18.1704 29.1699 17.2065 29.759C16.2692 30.3481 15.6132 31.0711 15.2383 31.928V39.7203C15.2383 40.7914 15.4793 41.7018 15.9613 42.4516C16.4701 43.1746 17.2198 43.5361 18.2106 43.5361H18.2909C18.6926 43.5361 18.8934 43.7369 18.8934 44.1386V45.3436C18.8934 45.7453 18.6926 45.9461 18.2909 45.9461H6.6025C6.20083 45.9461 6 45.7453 6 45.3436V44.1386C6 43.7369 6.20083 43.5361 6.6025 43.5361H6.68283C7.6736 43.5361 8.40999 43.1746 8.89199 42.4516C9.37399 41.7018 9.61498 40.7914 9.61498 39.7203V24.6578C9.61498 23.9349 9.56143 23.2386 9.45432 22.5692C9.37399 21.8997 9.17315 21.3374 8.85182 20.8822C8.53049 20.4002 7.99494 20.119 7.24516 20.0387C6.92383 20.0119 6.76316 19.8379 6.76316 19.5165V18.1509C6.76316 17.9902 6.80333 17.8831 6.88366 17.8295C6.99077 17.7492 7.13805 17.6823 7.32549 17.6287C8.58404 17.2003 9.85598 16.6915 11.1413 16.1024C12.4534 15.5133 13.6986 14.7769 14.8768 13.8932C14.9571 13.8397 15.0241 13.8129 15.0776 13.8129H15.1178C15.1714 13.8129 15.1981 13.8397 15.1981 13.8932V29.3172C15.4391 28.8352 15.8408 28.2862 16.4031 27.6703C16.9922 27.0545 17.742 26.5189 18.6524 26.0637C19.5629 25.5817 20.634 25.3407 21.8658 25.3407C23.1243 25.3407 24.2624 25.5415 25.2799 25.9432C26.3242 26.3448 27.1544 27.0545 27.7702 28.072C28.3861 29.0628 28.6941 30.4686 28.6941 32.2895V39.7203C28.6941 40.7914 28.9351 41.7018 29.4171 42.4516C29.8991 43.1746 30.6355 43.5361 31.6262 43.5361H31.7467Z" fill="white"/>
<path d="M51.3892 31.7673C51.2285 31.8477 51.0946 31.8878 50.9875 31.8878C50.8001 31.8878 50.626 31.7941 50.4653 31.6067C49.2604 30.0803 48.0018 29.0092 46.6897 28.3933C45.3776 27.7774 44.2395 27.4695 43.2755 27.4695C42.5793 27.4695 41.9367 27.6168 41.3476 27.9113C40.7584 28.2059 40.4639 28.7414 40.4639 29.518C40.4639 30.1071 40.6781 30.6025 41.1066 31.0042C41.5618 31.379 42.1375 31.687 42.8337 31.928C43.5299 32.169 44.2395 32.3832 44.9625 32.5706C46.0069 32.8116 47.0512 33.0928 48.0955 33.4141C49.1666 33.7355 50.144 34.1639 51.0277 34.6995C51.9113 35.2082 52.621 35.8509 53.1565 36.6275C53.7188 37.404 54 38.3814 54 39.5596C54 40.8182 53.6519 41.9428 52.9557 42.9336C52.2862 43.9244 51.3222 44.7143 50.0637 45.3034C48.8051 45.8658 47.3056 46.1469 45.565 46.1469C44.7349 46.1469 43.9182 46.0398 43.1149 45.8256C42.3383 45.6381 41.6019 45.3838 40.9057 45.0624C40.7451 44.9821 40.6246 44.9419 40.5442 44.9419C40.3568 44.9419 40.2631 45.0357 40.2631 45.2231C40.2631 45.2767 40.2898 45.3838 40.3434 45.5444C40.397 45.7051 40.4237 45.8122 40.4237 45.8658C40.4237 46.08 40.2631 46.1871 39.9417 46.1871H38.4957C38.2012 46.1871 37.9736 46.0532 37.8129 45.7854L34.3586 39.3186C34.2782 39.158 34.2381 39.0375 34.2381 38.9571C34.2381 38.7697 34.3452 38.609 34.5594 38.4751L35.8046 37.7521C35.9652 37.6718 36.0857 37.6316 36.1661 37.6316C36.3267 37.6316 36.474 37.7521 36.6079 37.9931C37.92 39.9479 39.3526 41.3403 40.9057 42.1704C42.4856 43.0006 44.0923 43.4156 45.7257 43.4156C48.2964 43.4156 49.5817 42.6524 49.5817 41.1261C49.5817 40.4299 49.2604 39.8542 48.6177 39.399C48.0018 38.9437 47.2252 38.5688 46.288 38.2743C45.3776 37.9797 44.4538 37.7253 43.5165 37.5111C41.8028 37.0827 40.4371 36.6007 39.4196 36.0651C38.402 35.5028 37.6388 34.9137 37.1301 34.2978C36.6213 33.6551 36.2732 33.0259 36.0857 32.41C35.9251 31.7673 35.8447 31.1514 35.8447 30.5623C35.8447 28.9557 36.4606 27.6302 37.6924 26.5858C38.9242 25.5415 40.5978 25.0193 42.7132 25.0193C43.9718 25.0193 45.083 25.1934 46.047 25.5415C47.011 25.8628 47.6805 26.1306 48.0554 26.3448C48.1625 26.3984 48.2428 26.4252 48.2964 26.4252C48.3767 26.4252 48.4169 26.3716 48.4169 26.2645C48.4169 26.1842 48.3767 26.0235 48.2964 25.7825C48.2696 25.6486 48.2428 25.5549 48.216 25.5013C48.216 25.421 48.216 25.3541 48.216 25.3005C48.216 25.0327 48.3901 24.8988 48.7382 24.8988H49.7825C50.1306 24.8988 50.3582 25.0461 50.4653 25.3407L52.4737 30.4418C52.554 30.6025 52.5942 30.7364 52.5942 30.8435C52.5942 31.0309 52.4871 31.1782 52.2728 31.2853L51.3892 31.7673Z" fill="white"/>
</svg>
