<svg width="242" height="41" viewBox="0 0 242 41" fill="none" xmlns="http://www.w3.org/2000/svg">
<g clip-path="url(#clip0_1741_2228)">
<path d="M31.532 37.1534C32.0234 37.1534 32.2691 37.3991 32.2691 37.8905V39.3647C32.2691 39.8561 32.0234 40.1018 31.532 40.1018H18.1659C17.6745 40.1018 17.4288 39.8561 17.4288 39.3647V37.8905C17.4288 37.3991 17.6745 37.1534 18.1659 37.1534H18.3134C19.2306 37.1534 19.8858 36.7112 20.279 35.8266C20.6721 34.9094 20.8686 33.7955 20.8686 32.4851V24.0822C20.8686 22.4442 20.6557 21.232 20.2298 20.4458C19.8039 19.6268 18.8375 19.2173 17.3306 19.2173C16.1184 19.2173 14.9227 19.5777 13.7433 20.2984C12.5967 21.0191 11.7941 21.9036 11.3355 22.9519V32.4851C11.3355 33.7955 11.6303 34.9094 12.22 35.8266C12.8424 36.7112 13.7597 37.1534 14.9718 37.1534H15.0701C15.5615 37.1534 15.8072 37.3991 15.8072 37.8905V39.3647C15.8072 39.8561 15.5615 40.1018 15.0701 40.1018H0.770365C0.278964 40.1018 0.0332642 39.8561 0.0332642 39.3647V37.8905C0.0332642 37.3991 0.278964 37.1534 0.770365 37.1534H0.868645C2.08077 37.1534 2.98167 36.7112 3.57135 35.8266C4.16103 34.9094 4.45587 33.7955 4.45587 32.4851V14.0576C4.45587 13.1731 4.39035 12.3213 4.25931 11.5023C4.16103 10.6833 3.91533 9.99535 3.52221 9.43843C3.12909 8.84875 2.47389 8.50477 1.55661 8.40649C1.16349 8.37373 0.966925 8.16079 0.966925 7.76766V6.0969C0.966925 5.90034 1.01607 5.7693 1.11435 5.70378C1.24539 5.6055 1.42557 5.5236 1.65489 5.45808C3.19461 4.93392 4.75071 4.31148 6.32319 3.59076C7.92843 2.87004 9.45177 1.96914 10.8932 0.888058C10.9915 0.822539 11.0734 0.78978 11.1389 0.78978H11.1881C11.2536 0.78978 11.2863 0.822539 11.2863 0.888058V19.7578C11.5812 19.1682 12.0726 18.4966 12.7605 17.7431C13.4813 16.9896 14.3985 16.3344 15.5124 15.7775C16.6262 15.1878 17.9366 14.893 19.4436 14.893C20.9833 14.893 22.3756 15.1387 23.6205 15.6301C24.8981 16.1215 25.9137 16.9896 26.6672 18.2345C27.4207 19.4466 27.7974 21.1665 27.7974 23.3942V32.4851C27.7974 33.7955 28.0922 34.9094 28.6819 35.8266C29.2716 36.7112 30.1725 37.1534 31.3846 37.1534H31.532Z" fill="white"/>
<path d="M48.8013 37.1534C49.2927 37.1534 49.5384 37.3991 49.5384 37.8905V39.3647C49.5384 39.8561 49.2599 40.1018 48.703 40.1018H34.7964C34.2395 40.1018 33.961 39.8561 33.961 39.3647V37.8905C33.961 37.3991 34.2067 37.1534 34.6981 37.1534H34.7964C36.0085 37.1534 36.893 36.7112 37.45 35.8266C38.0396 34.9094 38.3345 33.7955 38.3345 32.4851V27.2763C38.3345 26.5228 38.269 25.7693 38.1379 25.0158C38.0396 24.2623 37.7939 23.6071 37.4008 23.0502C37.0077 22.4933 36.3525 22.1657 35.4352 22.0674C35.0421 22.0347 34.8455 21.8217 34.8455 21.4286V19.7578C34.8455 19.5613 34.9111 19.4302 35.0421 19.3647C35.1731 19.2664 35.3533 19.1845 35.5826 19.119C38.1707 18.2673 40.1527 17.3991 41.5286 16.5146C42.9373 15.5973 43.9692 14.7947 44.6244 14.1067C44.6899 14.0412 44.7554 14.0085 44.821 14.0085H44.9684C45.0339 14.0085 45.0667 14.0412 45.0667 14.1067V32.436C45.0667 33.7464 45.3615 34.8602 45.9512 35.7775C46.5409 36.6948 47.4418 37.1534 48.6539 37.1534H48.8013ZM41.7743 3.73818C42.626 3.73818 43.4614 4.14768 44.2804 4.96668C45.0994 5.78568 45.5089 6.60468 45.5089 7.42369C45.5089 8.24269 45.0994 9.06169 44.2804 9.88069C43.4614 10.6997 42.626 11.1092 41.7743 11.1092C40.988 11.1092 40.169 10.6997 39.3173 9.88069C38.4983 9.09445 38.0888 8.27545 38.0888 7.42369C38.0888 6.60468 38.4983 5.78568 39.3173 4.96668C40.1363 4.14768 40.9553 3.73818 41.7743 3.73818Z" fill="white"/>
<path d="M77.2242 15.5318C77.7156 15.5318 77.9613 15.7775 77.9613 16.2689V17.7431C77.9613 18.2345 77.7156 18.4802 77.2242 18.4802H76.4871C75.963 18.4802 75.4879 18.6768 75.0621 19.0699C74.6689 19.463 74.1939 20.282 73.637 21.5269L65.3323 39.5613C65.1685 39.9216 64.9228 40.1018 64.5952 40.1018H61.7942C61.4339 40.1018 61.1718 39.9216 61.008 39.5613L52.7525 21.576C52.1956 20.3311 51.7369 19.5121 51.3766 19.119C51.049 18.6931 50.5576 18.4802 49.9024 18.4802H49.8041C49.3127 18.4802 49.067 18.2345 49.067 17.7431V16.2689C49.067 15.7775 49.3127 15.5318 49.8041 15.5318H61.1554C61.6468 15.5318 61.8925 15.7775 61.8925 16.2689V17.7431C61.8925 18.2345 61.6468 18.4802 61.1554 18.4802H61.0571C60.4347 18.4802 59.9924 18.6112 59.7304 18.8733C59.501 19.1026 59.3864 19.4466 59.3864 19.9053C59.3864 20.3311 59.4683 20.8062 59.6321 21.3303C59.8286 21.8545 60.0907 22.4605 60.4183 23.1485L64.9392 32.7308L69.067 23.1485C69.3946 22.395 69.673 21.7071 69.9024 21.0846C70.1317 20.4622 70.2463 19.938 70.2463 19.5121C70.2463 18.8242 69.886 18.4802 69.1653 18.4802H68.1824C67.691 18.4802 67.4454 18.2345 67.4454 17.7431V16.2689C67.4454 15.7775 67.691 15.5318 68.1824 15.5318H77.2242Z" fill="white"/>
<path d="M85.3968 31.3057C85.9537 32.6817 86.8383 33.9102 88.0504 34.9913C89.2953 36.0723 90.8677 36.6129 92.7678 36.6129C93.8162 36.6129 94.9136 36.318 96.0602 35.7284C97.2068 35.1387 98.206 34.2214 99.0578 32.9765C99.156 32.8127 99.2871 32.7308 99.4509 32.7308C99.6147 32.7308 99.7785 32.78 99.9423 32.8782C100.139 32.9765 100.63 33.255 101.416 33.7136C101.548 33.8119 101.613 33.9429 101.613 34.1067C101.613 34.3361 101.515 34.6145 101.318 34.9421C100.401 36.6456 99.156 38.0379 97.5836 39.119C96.0111 40.2001 93.9636 40.7406 91.441 40.7406C88.722 40.7406 86.3796 40.1346 84.414 38.9225C82.4484 37.7103 80.9251 36.1051 79.844 34.1067C78.7957 32.1084 78.2715 29.9298 78.2715 27.5711C78.2715 25.3107 78.5991 23.3778 79.2543 21.7726C79.9423 20.1346 80.8432 18.8242 81.957 17.8414C83.0709 16.8258 84.3157 16.0887 85.6917 15.6301C87.1003 15.1387 88.5254 14.893 89.9669 14.893C91.6049 14.893 93.0463 15.2206 94.2912 15.8758C95.536 16.4982 96.5844 17.3008 97.4361 18.2836C98.3206 19.2664 98.9759 20.3148 99.4017 21.4286C99.8604 22.5097 100.09 23.5252 100.09 24.4753C100.09 24.7374 99.9423 24.9339 99.6474 25.065L85.3968 31.3057ZM92.7187 24.2787C92.7187 22.7062 92.342 21.4122 91.5885 20.3967C90.835 19.3811 89.885 18.8733 88.7383 18.8733C87.3952 18.8733 86.3305 19.4139 85.5442 20.4949C84.758 21.5433 84.3649 22.87 84.3649 24.4753C84.3649 24.9667 84.3813 25.5727 84.414 26.2935C84.4795 27.0142 84.6106 27.6694 84.8071 28.2591L92.7187 24.2787Z" fill="white"/>
<path d="M135.298 23.1485C135.102 23.2468 134.938 23.2959 134.807 23.2959C134.578 23.2959 134.365 23.1813 134.168 22.9519C132.694 21.0846 131.154 19.7742 129.549 19.0207C127.944 18.2673 126.552 17.8905 125.372 17.8905C124.52 17.8905 123.734 18.0707 123.013 18.4311C122.293 18.7914 121.932 19.4466 121.932 20.3967C121.932 21.1174 122.194 21.7234 122.719 22.2148C123.276 22.6735 123.98 23.0502 124.832 23.3451C125.683 23.6399 126.552 23.902 127.436 24.1313C128.714 24.4261 129.991 24.7701 131.269 25.1632C132.579 25.5564 133.775 26.0805 134.856 26.7357C135.937 27.3582 136.805 28.1444 137.461 29.0944C138.149 30.0445 138.493 31.2402 138.493 32.6817C138.493 34.2214 138.067 35.5973 137.215 36.8094C136.396 38.0216 135.217 38.988 133.677 39.7087C132.137 40.3967 130.303 40.7406 128.173 40.7406C127.158 40.7406 126.158 40.6096 125.176 40.3475C124.226 40.1182 123.325 39.807 122.473 39.4139C122.276 39.3156 122.129 39.2664 122.031 39.2664C121.801 39.2664 121.687 39.3811 121.687 39.6104C121.687 39.6759 121.719 39.807 121.785 40.0035C121.85 40.2001 121.883 40.3311 121.883 40.3967C121.883 40.6587 121.687 40.7898 121.294 40.7898H119.525C119.164 40.7898 118.886 40.626 118.689 40.2984L114.463 32.3868C114.365 32.1903 114.316 32.0429 114.316 31.9446C114.316 31.7153 114.447 31.5187 114.709 31.3549L116.232 30.4704C116.429 30.3721 116.576 30.3229 116.674 30.3229C116.871 30.3229 117.051 30.4704 117.215 30.7652C118.82 33.1567 120.573 34.8602 122.473 35.8758C124.406 36.8913 126.371 37.3991 128.37 37.3991C131.515 37.3991 133.087 36.4655 133.087 34.5981C133.087 33.7464 132.694 33.042 131.908 32.4851C131.154 31.9282 130.204 31.4696 129.058 31.1092C127.944 30.7488 126.814 30.4376 125.667 30.1755C123.57 29.6514 121.9 29.0617 120.655 28.4065C119.41 27.7185 118.476 26.9978 117.854 26.2443C117.231 25.4581 116.805 24.6882 116.576 23.9347C116.38 23.1485 116.281 22.395 116.281 21.6743C116.281 19.7087 117.035 18.0871 118.542 16.8094C120.049 15.5318 122.096 14.893 124.684 14.893C126.224 14.893 127.583 15.1059 128.763 15.5318C129.942 15.9249 130.761 16.2525 131.22 16.5146C131.351 16.5801 131.449 16.6129 131.515 16.6129C131.613 16.6129 131.662 16.5474 131.662 16.4163C131.662 16.318 131.613 16.1215 131.515 15.8266C131.482 15.6628 131.449 15.5482 131.416 15.4827C131.416 15.3844 131.416 15.3025 131.416 15.237C131.416 14.9094 131.629 14.7456 132.055 14.7456H133.333C133.759 14.7456 134.037 14.9257 134.168 15.2861L136.625 21.5269C136.724 21.7234 136.773 21.8872 136.773 22.0183C136.773 22.2476 136.642 22.4278 136.38 22.5588L135.298 23.1485Z" fill="white"/>
<path d="M162.243 33.4679C162.505 33.6645 162.636 33.8774 162.636 34.1067C162.636 34.1723 162.603 34.3033 162.538 34.4999C161.588 36.5965 160.179 38.169 158.312 39.2173C156.477 40.2329 154.462 40.7406 152.268 40.7406C150.433 40.7406 148.762 40.3475 147.255 39.5613C145.748 38.7423 144.471 37.6612 143.422 36.318C142.374 34.9749 141.604 33.4679 141.113 31.7971C140.621 30.1264 140.441 28.4065 140.572 26.6374C140.802 23.9184 141.555 21.6907 142.833 19.9544C144.11 18.2181 145.65 16.9405 147.452 16.1215C149.286 15.3025 151.121 14.893 152.955 14.893C155.118 14.893 156.87 15.2206 158.213 15.8758C159.557 16.531 160.589 17.3827 161.309 18.4311C162.03 19.4794 162.521 20.5768 162.783 21.7234C162.816 21.8545 162.833 21.9691 162.833 22.0674C162.833 22.3295 162.636 22.5097 162.243 22.608L156.592 24.0822C156.395 24.1477 156.248 24.1804 156.15 24.1804C155.92 24.1804 155.806 24.0658 155.806 23.8365C155.806 23.7054 155.806 23.5744 155.806 23.4433C155.838 23.3123 155.855 23.1321 155.855 22.9028C155.855 21.8545 155.527 20.9208 154.872 20.1018C154.217 19.2828 153.201 18.8733 151.825 18.8733C150.58 18.8733 149.598 19.2664 148.877 20.0527C148.156 20.8389 147.632 21.8545 147.304 23.0994C147.01 24.3115 146.862 25.5891 146.862 26.9323C146.862 28.5375 147.075 30.0609 147.501 31.5023C147.927 32.9438 148.615 34.1231 149.565 35.0404C150.548 35.9249 151.874 36.3672 153.545 36.3672C154.856 36.3672 156.068 36.056 157.182 35.4335C158.295 34.7783 159.213 33.8938 159.933 32.78C160.064 32.5506 160.261 32.436 160.523 32.436C160.687 32.436 160.834 32.4851 160.965 32.5834L162.243 33.4679Z" fill="white"/>
<path d="M177.283 14.893C179.151 14.893 180.87 15.2697 182.443 16.0232C184.048 16.7439 185.424 17.7431 186.571 19.0207C187.717 20.2656 188.602 21.6743 189.224 23.2468C189.879 24.7865 190.207 26.3917 190.207 28.0625C190.207 30.4868 189.634 32.6653 188.487 34.5981C187.341 36.4982 185.834 38.0052 183.966 39.119C182.099 40.2001 180.068 40.7406 177.873 40.7406C176.006 40.7406 174.286 40.3803 172.713 39.6596C171.141 38.9388 169.765 37.9724 168.585 36.7603C167.439 35.5154 166.538 34.1067 165.883 32.5343C165.26 30.929 164.949 29.2582 164.949 27.522C164.949 25.1305 165.506 22.9847 166.62 21.0846C167.734 19.1845 169.224 17.6776 171.092 16.5637C172.959 15.4499 175.023 14.893 177.283 14.893ZM179.396 36.7603C180.019 36.7603 180.707 36.5965 181.46 36.2689C182.214 35.9413 182.869 35.368 183.426 34.549C184.015 33.73 184.31 32.5998 184.31 31.1583C184.31 30.0117 184.081 28.7505 183.622 27.3745C183.196 25.9659 182.59 24.6227 181.804 23.3451C181.051 22.0347 180.15 20.97 179.101 20.151C178.086 19.2992 176.972 18.8733 175.76 18.8733C174.417 18.8733 173.254 19.3811 172.271 20.3967C171.288 21.3795 170.797 22.739 170.797 24.4753C170.797 25.5891 171.01 26.8504 171.436 28.2591C171.894 29.6677 172.5 31.0273 173.254 32.3377C174.04 33.6153 174.957 34.68 176.006 35.5318C177.054 36.3508 178.184 36.7603 179.396 36.7603Z" fill="white"/>
<path d="M218.655 30.1755C218.655 31.0273 218.704 31.879 218.803 32.7308C218.934 33.5498 219.196 34.2542 219.589 34.8438C220.015 35.4008 220.67 35.7284 221.555 35.8266C221.817 35.8594 221.964 35.9413 221.997 36.0723C222.062 36.1706 222.095 36.3017 222.095 36.4655V38.0871C222.095 38.5457 221.866 38.775 221.407 38.775C219.802 38.775 218.459 38.8733 217.378 39.0699C216.329 39.2337 215.412 39.463 214.626 39.7578C213.872 40.0199 213.119 40.3148 212.365 40.6424C212.234 40.7079 212.103 40.7406 211.972 40.7406H211.874C211.808 40.7406 211.776 40.6915 211.776 40.5932C211.776 40.4949 211.825 40.0035 211.923 39.119C212.054 38.2017 212.267 36.6293 212.562 34.4016C212.103 35.3189 211.465 36.2689 210.646 37.2517C209.827 38.2345 208.827 39.0699 207.648 39.7578C206.501 40.413 205.175 40.7406 203.668 40.7406C201.899 40.7406 200.457 40.4786 199.343 39.9544C198.262 39.3975 197.427 38.6768 196.837 37.7922C196.247 36.875 195.838 35.8594 195.609 34.7456C195.412 33.599 195.314 32.436 195.314 31.2566V23.1485C195.314 21.8053 195.003 20.6915 194.38 19.807C193.79 18.9225 192.89 18.4802 191.677 18.4802H191.481C190.989 18.4802 190.744 18.2345 190.744 17.7431V16.2689C190.744 15.7775 190.989 15.5318 191.481 15.5318H201.456C201.948 15.5318 202.193 15.7775 202.193 16.2689V31.5515C202.193 32.436 202.275 33.255 202.439 34.0085C202.603 34.7292 202.931 35.3189 203.422 35.7775C203.946 36.2034 204.716 36.4163 205.732 36.4163C206.551 36.4163 207.37 36.2198 208.189 35.8266C209.008 35.4008 209.728 34.8766 210.351 34.2542C211.006 33.5989 211.465 32.9274 211.727 32.2394V23.1485C211.727 21.8053 211.415 20.6915 210.793 19.807C210.203 18.9225 209.319 18.4802 208.139 18.4802H208.041C207.55 18.4802 207.304 18.2345 207.304 17.7431V16.2689C207.304 15.7775 207.55 15.5318 208.041 15.5318H217.918C218.41 15.5318 218.655 15.7775 218.655 16.2689V30.1755Z" fill="white"/>
<path d="M241.193 36.5637C241.292 36.6948 241.341 36.8422 241.341 37.006C241.341 37.2026 241.21 37.3827 240.948 37.5465L239.473 38.4802C238.589 39.0371 237.524 39.5613 236.279 40.0527C235.034 40.5113 233.79 40.7406 232.545 40.7406C231.562 40.7406 230.628 40.5113 229.744 40.0527C228.892 39.594 228.204 38.8242 227.68 37.7431C227.156 36.6293 226.894 35.1059 226.894 33.1731V24.0822C226.894 23.1976 226.844 22.3295 226.746 21.4777C226.648 20.5932 226.337 19.8725 225.812 19.3156C225.321 18.7587 224.486 18.4802 223.306 18.4802C222.815 18.4802 222.569 18.2345 222.569 17.7431V16.2689C222.569 15.7775 222.815 15.5318 223.306 15.5318H226.894V12.2394C226.894 11.8135 227.041 11.5187 227.336 11.3549C228.057 10.9618 229.007 10.4212 230.186 9.73327C231.365 9.01255 232.414 8.19355 233.331 7.27626C233.396 7.21075 233.478 7.17799 233.577 7.17799H233.675C233.74 7.17799 233.773 7.22712 233.773 7.3254V15.5318H240.358C240.849 15.5318 241.095 15.7775 241.095 16.2689V18.3819C241.095 18.8733 240.849 19.119 240.358 19.119H233.773V33.1731C233.773 34.4507 233.97 35.3352 234.363 35.8266C234.756 36.2853 235.247 36.5146 235.837 36.5146C236.394 36.5146 236.984 36.3672 237.606 36.0723C238.229 35.7447 238.802 35.4171 239.326 35.0895C239.555 34.9585 239.736 34.893 239.867 34.893C240.063 34.893 240.243 35.024 240.407 35.2861L241.193 36.5637Z" fill="white"/>
</g>
<defs>
<clipPath id="clip0_1741_2228">
<rect width="242" height="41" fill="white"/>
</clipPath>
</defs>
</svg>
